# Blender 4.4.3
# www.blender.org
o Sphere
v 0.354013 0.753922 0.127402
v 0.301858 0.682833 -0.022383
v 0.190461 0.542877 -0.150978
v 0.615601 0.708066 0.138478
v 0.479746 0.660968 -0.006086
v 0.317430 0.549303 -0.127938
v 0.842584 0.453261 0.026316
v 0.668741 0.506071 -0.073985
v 0.499047 0.528407 -0.144022
v 0.937565 0.217150 -0.078637
v 0.811678 0.264299 -0.203412
v 0.699246 0.337043 -0.273631
v 0.991711 0.056580 -0.108570
v 0.915475 0.067719 -0.274416
v 0.824154 0.117364 -0.381860
v 1.045722 -0.040002 -0.077161
v 1.006121 -0.052636 -0.257306
v 0.938085 -0.024999 -0.389112
v 1.076022 -0.118654 -0.023981
v 1.074313 -0.134949 -0.202209
v 1.019606 -0.125254 -0.349161
v -0.905208 0.132410 0.451235
v -0.974613 0.081312 0.294712
v -1.012338 -0.004228 0.111837
v -0.771139 0.346518 0.422794
v -0.857430 0.277074 0.280860
v -0.924783 0.169864 0.131691
v -0.547122 0.507131 0.289447
v -0.631105 0.484182 0.182378
v -0.737835 0.397437 0.089341
v -0.222333 0.527801 0.068975
v -0.283423 0.507057 -0.029346
v -0.420947 0.494059 -0.063791
v 0.011886 0.587957 0.012211
v -0.011617 0.532510 -0.114212
v -0.132678 0.482109 -0.181981
v 0.166110 0.698829 0.072723
v 0.151447 0.634026 -0.069680
v 0.058422 0.517118 -0.184389
v 0.301858 0.682833 -0.022383
v 0.190461 0.542877 -0.150978
v 0.479746 0.660968 -0.006086
v 0.317430 0.549303 -0.127938
vn 0.1632 0.8751 -0.4556
vn 0.4505 0.7006 -0.5534
vn 0.1910 0.7210 -0.6661
vn 0.6058 0.5726 -0.5524
vn 0.4929 0.6997 -0.5171
vn 0.7680 0.4643 -0.4410
vn 0.7074 0.5691 -0.4192
vn 0.7542 0.5754 -0.3165
vn 0.8266 0.4888 -0.2789
vn 0.8834 0.4478 -0.1380
vn 0.8086 0.5135 -0.2873
vn -0.8223 0.5264 0.2164
vn -0.8749 0.4844 -0.0043
vn -0.5939 0.7969 0.1104
vn -0.7285 0.6846 -0.0246
vn -0.2789 0.9392 -0.2004
vn -0.1364 0.9842 -0.1130
vn -0.2258 0.9453 -0.2355
vn -0.1237 0.9526 -0.2779
vn -0.2720 0.8467 -0.4572
vn -0.4565 0.8345 -0.3085
vn -0.1628 0.9083 -0.3852
vn 0.0334 0.6732 -0.7387
vn 0.1310 0.6241 -0.7702
vt 0.500418 0.497296
vt 0.500418 0.986140
vt 0.417183 0.986140
vt 0.417183 0.497296
vt 0.333948 0.986140
vt 0.333948 0.497296
vt 0.417183 0.008453
vt 0.333948 0.008453
vt 0.250713 0.986140
vt 0.250713 0.497296
vt 0.250713 0.008453
vt 0.167478 0.986140
vt 0.167478 0.497296
vt 0.167478 0.008453
vt 0.084243 0.497296
vt 0.084243 0.008453
vt 0.084243 0.986140
vt 0.001008 0.986140
vt 0.001008 0.497296
vt 0.001008 0.008453
vt 0.999829 0.497296
vt 0.999829 0.986140
vt 0.916594 0.986140
vt 0.916594 0.497296
vt 0.999829 0.008453
vt 0.916594 0.008453
vt 0.833359 0.986140
vt 0.833359 0.497296
vt 0.833359 0.008453
vt 0.750124 0.497296
vt 0.750124 0.008453
vt 0.750124 0.986140
vt 0.666889 0.986140
vt 0.666889 0.497296
vt 0.666889 0.008453
vt 0.583653 0.497296
vt 0.583653 0.008453
vt 0.583653 0.986140
vt 0.500418 0.008453
s 0
f 2/1/1 1/2/1 4/3/1 5/4/1
f 5/4/2 4/3/2 7/5/2 8/6/2
f 6/7/3 5/4/3 8/6/3 9/8/3
f 8/6/4 7/5/4 10/9/4 11/10/4
f 9/8/5 8/6/5 11/10/5 12/11/5
f 11/10/6 10/9/6 13/12/6 14/13/6
f 12/11/7 11/10/7 14/13/7 15/14/7
f 15/14/8 14/13/8 17/15/8 18/16/8
f 14/13/9 13/12/9 16/17/9 17/15/9
f 17/15/10 16/17/10 19/18/10 20/19/10
f 18/16/11 17/15/11 20/19/11 21/20/11
f 23/21/12 22/22/12 25/23/12 26/24/12
f 24/25/13 23/21/13 26/24/13 27/26/13
f 26/24/14 25/23/14 28/27/14 29/28/14
f 27/26/15 26/24/15 29/28/15 30/29/15
f 30/29/16 29/28/16 32/30/16 33/31/16
f 29/28/17 28/27/17 31/32/17 32/30/17
f 32/30/18 31/32/18 34/33/18 35/34/18
f 33/31/19 32/30/19 35/34/19 36/35/19
f 36/35/20 35/34/20 38/36/20 39/37/20
f 35/34/21 34/33/21 37/38/21 38/36/21
f 38/36/22 37/38/22 1/2/22 2/1/22
f 39/37/23 38/36/23 2/1/23 3/39/23
f 41/39/24 40/1/24 42/4/24 43/7/24
